<?xml version="1.0" encoding="UTF-8"?>
<svg id="Layer_1" data-name="Layer 1" xmlns="http://www.w3.org/2000/svg" viewBox="0 0 2181.89 1080">
  <defs>
    <style>
      .cls-1 {
        letter-spacing: .08em;
      }

      .cls-1, .cls-2, .cls-3, .cls-4 {
        fill: #04455f;
      }

      .cls-2 {
        letter-spacing: .09em;
      }

      .cls-3, .cls-5, .cls-6 {
        letter-spacing: .1em;
      }

      .cls-7 {
        font-family: Signika-Regular, Signika;
        font-size: 56.55px;
        font-variation-settings: 'wght' 400;
      }

      .cls-4 {
        letter-spacing: .04em;
      }

      .cls-8 {
        letter-spacing: .04em;
      }

      .cls-8, .cls-9, .cls-5 {
        fill: #179bb4;
      }

      .cls-9 {
        letter-spacing: .08em;
      }

      .cls-6 {
        fill: #020202;
      }

      .cls-10 {
        fill: #0f4861;
      }

      .cls-11 {
        fill: #219cb5;
      }

      .cls-12 {
        fill: #074660;
      }

      .cls-13 {
        fill: #87d1ce;
      }

      .cls-14 {
        fill: #1c9cb5;
      }
    </style>
  </defs>
  <g>
    <path class="cls-11" d="M809.16,609.65c-15.48,15.48-33.98,23.22-55.6,23.22s-40.48-7.74-55.96-23.22c-15.48-15.48-23.22-34.16-23.22-56.05,0,.18-.09-21.26-.27-64.41,0-3.11,1.16-5.87,3.56-8.18,2.4-2.4,5.07-3.56,8.18-3.56s5.78,1.07,8.01,3.29c2.22,2.14,3.38,4.72,3.38,7.65v65.57c0,15.75,5.43,29.09,16.37,40.03,10.94,10.94,24.2,16.46,39.86,16.46s28.65-5.52,39.59-16.46c10.94-10.94,16.37-24.29,16.37-40.03,0,.18,0-21.35,0-64.59,0-3.11,1.07-5.87,3.29-8.18,2.22-2.4,4.8-3.56,7.83-3.56,7.38,0,11.12,3.65,11.12,10.85l.62,65.39c0,21.53-7.74,40.3-23.13,55.78Z"/>
    <path class="cls-11" d="M1002.93,621.39c0,3.11-1.16,5.78-3.47,8.18-2.31,2.4-5.07,3.56-8.1,3.56s-5.69-1.07-7.92-3.11c-2.22-2.05-3.38-4.63-3.38-7.74v-65.21c0-15.48-5.43-28.74-16.37-39.68-10.94-11.03-24.11-16.55-39.59-16.55s-28.91,5.52-39.86,16.55c-10.94,11.03-16.37,24.29-16.37,39.68,0-.18,0,21.08,0,63.97,0,3.29-1.16,6.14-3.47,8.54-2.31,2.4-5.07,3.56-8.1,3.56s-5.69-1.07-7.92-3.2c-2.22-2.14-3.38-4.8-3.38-7.92v-65.21c0-21.62,7.65-40.12,22.95-55.51,15.3-15.39,33.9-23.04,55.78-23.04s40.3,7.74,55.78,23.22c15.48,15.48,23.22,33.98,23.22,55.6l.18,64.32Z"/>
    <path class="cls-11" d="M1041.27,439.99c0,3.11-1.07,5.78-3.29,8.18-2.22,2.4-4.89,3.56-8.01,3.56-3.38,0-6.14-1.07-8.27-3.11-2.22-2.05-3.29-4.63-3.29-7.74s1.07-5.78,3.29-8.18c2.22-2.4,4.89-3.56,8.01-3.56s5.87,1.07,8.18,3.11c2.22,2.05,3.38,4.63,3.38,7.74ZM1041.27,622.01c0,3.11-1.25,5.69-3.65,7.74-2.4,2.05-5.16,3.11-8.27,3.11s-5.6-1.16-7.74-3.56c-2.14-2.4-3.2-5.07-3.2-8.18v-134.78c0-2.85,1.16-5.43,3.38-7.56,2.22-2.14,4.89-3.2,7.92-3.2s5.78,1.16,8.1,3.56c2.31,2.4,3.47,5.07,3.47,8.18v134.69h0ZM1041.27,622.01c0,3.11-1.25,5.69-3.65,7.74-2.4,2.05-5.16,3.11-8.27,3.11s-5.6-1.16-7.74-3.56c-2.14-2.4-3.2-5.07-3.2-8.18l22.86.89Z"/>
    <path class="cls-10" d="M1353.46,489.46v65.21c0,21.89-7.65,40.48-22.86,55.78-15.21,15.39-33.72,23.04-55.34,23.04-14.06,0-27.05-3.38-39.14-10.23-12.1-6.76-21.71-16.19-28.91-28.11-7.03,11.3-16.37,20.28-28.11,26.78-11.74,6.49-24.47,9.7-37.99,9.7-21.89,0-40.48-7.74-55.78-23.22-15.39-15.48-23.04-34.07-23.04-55.96,0,.18-.09-21.08-.27-63.97-.18-3.11.89-5.78,3.29-8.18,2.4-2.4,5.16-3.56,8.54-3.56,3.11,0,5.78,1.07,8.01,3.11,2.22,2.05,3.38,4.63,3.38,7.74v65.39c0,15.48,5.43,28.74,16.37,39.68,10.94,10.94,24.11,16.46,39.59,16.46,11.57,0,22.06-3.29,31.67-9.79,9.61-6.49,16.46-15.12,20.55-25.89,2.22-5.6,3.38-9.79,3.38-12.72v-70.37c0-3.29,1.16-6.41,3.56-9.34,2.31-2.85,5.16-4.36,8.54-4.36,2.94,0,5.52,1.07,7.65,3.29,2.14,2.14,3.2,4.72,3.2,7.56v65.39c-.18,1.07-.36,2.4-.44,4.18-.09,1.78-.18,3.11-.18,4.18,0,3.11,1.07,7.3,3.11,12.72,4.09,11.12,10.94,20.11,20.46,26.78,9.52,6.67,20.28,10.05,32.21,10.05,15.39,0,28.56-5.52,39.41-16.46,10.85-10.94,16.37-24.2,16.37-39.68,0,.18,0-21.26,0-64.41,0-3.11,1.16-5.87,3.47-8.18,2.31-2.4,5.07-3.56,8.1-3.56s5.69,1.07,7.92,3.2c2.22,2.31,3.29,4.8,3.29,7.74Z"/>
    <path class="cls-10" d="M1525.6,622.37c0,3.29-1.16,5.96-3.56,7.92-2.4,1.96-5.07,2.94-8.18,2.94-5.78,0-9.25-3.11-10.5-9.25-.18-1.07-.27-6.41-.27-16.1-15.66,16.9-34.43,25.36-56.23,25.36s-40.48-7.74-55.96-23.22c-15.48-15.48-23.22-34.07-23.22-55.96s7.74-40.21,23.22-55.6c15.48-15.48,34.07-23.22,55.96-23.22s40.21,7.74,55.6,23.22c15.48,15.48,23.22,33.98,23.22,55.6l-.09,68.33h0ZM1502.74,554.05c0-15.48-5.43-28.74-16.37-39.68-10.94-11.03-24.11-16.55-39.59-16.55s-28.91,5.52-39.86,16.55c-10.94,11.03-16.37,24.29-16.37,39.68s5.43,28.65,16.37,39.59c10.94,10.94,24.2,16.37,39.86,16.37s28.65-5.43,39.59-16.37c10.94-10.94,16.37-24.2,16.37-39.59Z"/>
    <path class="cls-10" d="M1652.65,622.37c0,7.21-3.74,11.03-11.12,11.48-9.52.44-16.37.62-20.73.62-21.89,0-40.57-7.38-56.14-22.33-15.57-14.86-23.31-33.1-23.31-54.8v-108.09c0-2.85,1.16-5.43,3.38-7.56,2.22-2.14,4.89-3.29,7.92-3.29s5.69,1.16,7.92,3.56c2.22,2.4,3.47,5.07,3.65,8.18v27.22h76.6c7.03,0,10.59,3.83,10.59,11.48,0,3.29-1.16,6.05-3.56,8.36-2.4,2.31-5.16,3.38-8.18,3.38h-75.35v54.89c0,15.39,5.6,28.56,16.73,39.32,11.21,10.76,24.47,16.1,40.03,15.84h19.93c3.11,0,5.87,1.16,8.18,3.56,2.31,2.31,3.47,5.07,3.47,8.18Z"/>
    <path class="cls-10" d="M1824.88,566.68h-132.91c2.85,12.63,9.43,22.95,19.66,30.96,10.23,8.01,21.89,12.01,35.05,12.01h19.75c7.83.44,11.74,4.36,11.74,11.74s-3.74,10.85-11.12,11.48c-4.09.18-10.94.27-20.37.27-21.89,0-40.48-7.74-55.96-23.22-15.48-15.48-23.22-34.07-23.22-55.96s7.74-40.21,23.22-55.6c15.48-15.48,34.07-23.22,55.96-23.22,15.84,0,30.43,4.45,43.77,13.26,13.26,8.9,23.04,20.73,29.18,35.59,3.29,8.01,5.07,14.41,5.25,19.13v23.58h0ZM1798.28,543.19c-2.67-13.17-8.45-24.02-17.35-32.47-9.52-8.63-20.82-12.99-33.98-12.99s-25.27,4.27-35.68,12.81c-10.41,8.54-16.99,19.39-19.66,32.65h106.67Z"/>
    <path class="cls-10" d="M1914.47,475.22h20.11c3.11,0,5.78,1.16,8.18,3.38,2.4,2.22,3.56,4.89,3.56,7.92,0,3.29-1.07,5.96-3.29,8.1-2.22,2.14-4.8,3.2-7.92,3.2h-20.55c-15.75,0-29.09,5.52-40.03,16.55-10.94,11.03-16.46,24.29-16.46,39.68v67.08c0,3.11-1.16,5.69-3.47,7.92-2.31,2.14-5.07,3.2-8.1,3.2-7.56,0-11.3-3.65-11.3-10.85v-67.35c0-21.62,7.74-40.21,23.22-55.6,15.57-15.48,34.25-23.22,56.05-23.22h20.11-20.11Z"/>
  </g>
  <text class="cls-7" transform="translate(674.11 710.15) scale(1.1 1)"><tspan class="cls-3" x="0" y="0">WELLNESS </tspan><tspan class="cls-1" x="336.14" y="0">S</tspan><tspan class="cls-4" x="371.88" y="0">T</tspan><tspan class="cls-3" x="402.02" y="0">A</tspan><tspan class="cls-2" x="442.42" y="0">R</tspan><tspan class="cls-3" x="481.47" y="0">TS WITH</tspan><tspan class="cls-6" x="724.59" y="0"> </tspan><tspan class="cls-5" x="742.86" y="0">CLEAN </tspan><tspan class="cls-9" x="958.36" y="0">W</tspan><tspan class="cls-8" x="1010.72" y="0">A</tspan><tspan class="cls-5" x="1047.73" y="0">TER</tspan></text>
  <g>
    <g>
      <path class="cls-13" d="M556.03,464.85c-9.23,1.47-18.54,3.53-27.92,6.15-33.51,8.39-75.52,20.76-108.97,9.34-8.75-3.12-17.03-7.73-24.56-13.48-15.72-11.91-27.07-28.1-43.23-40.22-13.93-10.43-32.47-16.76-50.27-15.89-6.22.27-12.28,1.45-18.09,3.41.02-4.34.02-8.32,0-11.85,11.91-4.32,24.04-7.91,36.27-11.31,27.14-7.87,53.79-12.23,81.63-4.54,27.27,7.15,49.02,25.53,73.55,38.83,24.24,14.43,53.38,25.78,81.56,23.52.02,5.27.04,10.65.04,16.03Z"/>
      <path class="cls-14" d="M556.03,494.88c-.04,14.56-.16,27.34-.41,35.61-45.18,5.79-91.44-5.58-135.04-18.68-23.65-6.83-46.36-17.7-71.02-21.16-24.35-3.77-45.85,3.84-66.68,14.2-.34-22.3-.18-48.18-.02-69.91,10.83-2.12,21.8-1.88,32.94,1.6,16.76,5.34,32.42,13.98,48.46,22.66,17.37,9.34,33.42,20.91,51.28,29.66,6.74,3.3,13.95,6.22,21.12,8.61,7.03,2.38,15.06,4.73,22.39,5.81,15.08,2.85,30.89,2.06,45.92.29,17.25-2.08,34.28-5.2,51.06-8.68Z"/>
      <path class="cls-14" d="M553.75,549.32c-.34,1.97-.74,3.94-1.17,5.92-11.78.59-23.61,2.55-35.25,5.86-20.28,5.59-40.43,12.55-60.64,18.23-7.85,2.51-15.83,4.36-23.95,5.7-24.78,4.52-50.56.43-73.78-9.2-7.93-3.03-15.78-6.4-23.97-9.05-16.01-5.4-32.06-7.69-47.55-6.31-.77-3.1-1.42-6.24-1.95-9.39-1.08-5.9-1.76-15.87-2.19-28.08,41.45-19.9,59.01-36.24,107.18-14.7,7.84,3.35,18.59,8.98,26.36,12.84,17.71,9.04,36.09,16.84,55.38,22.05,25.93,7.89,54.43,10.7,81.52,6.13Z"/>
      <path class="cls-12" d="M546.69,574.06c-12.68,2.31-25.44,5.51-37.78,8.62-19.18,4.82-39.02,9.81-59.11,11.58-22.2,1.19-44.75-1.92-67.83-5.5-23.26-3.39-49.61-7.23-74.77-12.33-5.18-.84-10.26-1.38-15.09-1.6l-.93-.04.33.87c3.22,8.6,7.36,16.93,12.32,24.77l.22.35.4-.07c25.16-4.35,51.17-1.87,76.32.54l1.75.17c18.77,1.64,37.12,3.3,55.24,5.51,17.23,1.9,34.7,5.52,51.6,9.03,9.41,1.96,19.15,3.98,28.73,5.68l.33.06.23-.25c12.35-13.39,22.28-29.49,28.72-46.55l.38-1.01-1.07.19Z"/>
      <path class="cls-12" d="M501.38,635.98c-10.92-2.89-21.91-6.33-32.54-9.66l-7-2.18c-2.88-.96-5.76-1.93-8.63-2.9-16.3-5.51-33.14-11.2-50.54-13.53-7.58-1.01-14.26-1.54-20.4-1.64-15.81-.42-31.6,2.37-46.86,5.06-4.53.8-9.21,1.63-13.81,2.35-1.82.32-3.7.63-5.64.94l-1.77.29.7.83c12.57,14.9,27.87,26.83,45.47,35.44,16.3,7.98,33.44,12.63,50.97,13.81h17.92c18.59-1.26,36.44-6.43,53.05-15.36,6.74-3.5,13.23-7.67,19.29-12.38l.98-.76-1.2-.32Z"/>
      <path class="cls-13" d="M555.96,439.57v.07c-25.57-.81-50.97-5.95-72.24-20.62-15.1-10.97-29.56-23.11-46.54-31.14-13.95-7.12-29.39-10.9-44.84-12.91-37.53-4.36-74.44,5.06-109.42,18.68-.02-.63-.04-1.24-.05-1.79,0-.99,0-1.95-.02-2.94,4.21-2.08,8.48-4.05,12.82-5.9,27.83-11.92,58.63-18.83,89.05-15.44,2.12.29,6.56.66,8.53,1.09,4.38.82,9.72,1.77,13.97,3.1,22.18,5.67,41.09,19.2,59.74,31.84,5.41,3.57,13.12,9.13,18.81,12.07,19.49,10.42,41.24,15.28,63.16,18.09,2.33.29,4.68.56,7.01.79,0,1.65.02,3.32.02,5Z"/>
    </g>
    <path class="cls-12" d="M602.97,410.19v-22.9c-.02-1.09-.02-2.2-.02-3.3,0-5.6,0-11.39-1.81-16.67l-.09-.25c-2.47-6.83-8.38-11.19-15.41-11.38-6.88-.24-12.95,3.75-15.73,10.29-2.39,5.65-2.4,11.87-2.42,17.87,0,1.24,0,2.49-.03,3.72-.13,8.41-.07,26.69,0,47.86.12,38.77.27,87.01-.61,102.03-3.69,51.12-34.89,99.11-79.49,122.26-40.92,22.01-88.92,22.63-131.69,1.72-43.16-21.11-73.6-61.36-81.44-107.69-3.57-19.52-3.14-79.63-2.83-123.51.14-19.45.26-36.25,0-45.07.06-8.7-.26-17.65-4.74-23.05-3.14-4.31-8.32-6.74-13.82-6.43-5.61.29-10.59,3.28-13.32,7.97-3.72,5.83-3.66,13.62-3.6,21.86.02,2.39.04,4.86-.04,7.36.01,7.68,0,37.62,0,65.89,0,24.25,0,47.27,0,53.89-3.46,60.1,21.94,118.99,67.97,157.51,33.12,27.72,73.57,42.31,115.2,42.31,13.98,0,28.1-1.65,42.11-4.99,69.18-15.98,124.57-74.21,137.82-144.88,2.89-14.03,4.2-27.97,3.99-42.61,0-11.75,0-74.21,0-109.82Z"/>
  </g>
</svg>